<svg id="svg" version="1.1" width="400" height="138.69969040247676" viewBox="0 0 400 138.69969040247676" xmlns="http://www.w3.org/2000/svg" xmlns:xlink="http://www.w3.org/1999/xlink" ><g id="svgg"><path id="path0" d="M10.667 69.333 L 10.667 126.833 39.073 126.833 C 56.967 126.833,67.517 126.774,67.579 126.674 C 67.633 126.586,67.775 126.552,67.895 126.598 C 68.157 126.699,68.571 126.249,68.428 126.019 C 68.259 125.745,68.553 125.682,70.139 125.653 C 70.979 125.638,71.667 125.562,71.667 125.485 C 71.667 125.407,71.779 125.387,71.917 125.440 C 72.154 125.531,72.193 125.455,72.234 124.833 C 72.246 124.649,72.493 124.571,73.167 124.537 C 73.671 124.512,74.196 124.444,74.333 124.386 C 74.471 124.328,74.645 124.294,74.721 124.311 C 74.796 124.328,74.814 124.270,74.760 124.182 C 74.706 124.095,74.737 123.976,74.831 123.918 C 74.924 123.861,75.000 123.668,75.000 123.490 C 75.000 123.215,75.119 123.167,75.801 123.167 C 76.283 123.167,76.732 123.062,76.926 122.904 C 77.104 122.760,77.143 122.697,77.013 122.765 C 76.860 122.845,76.890 122.733,77.097 122.449 C 77.280 122.198,77.582 122.008,77.804 122.005 C 78.314 121.998,78.667 121.626,78.667 121.095 C 78.667 120.717,78.735 120.667,79.250 120.667 C 79.806 120.667,79.833 120.639,79.833 120.083 C 79.833 119.548,79.874 119.500,80.327 119.500 C 80.850 119.500,81.167 119.130,81.167 118.522 C 81.167 118.267,81.295 118.175,81.708 118.136 C 82.173 118.091,82.257 118.013,82.302 117.583 C 82.340 117.209,82.487 117.020,82.885 116.833 C 83.261 116.657,83.413 116.473,83.403 116.208 C 83.396 116.002,83.452 115.833,83.528 115.833 C 83.604 115.833,83.667 115.538,83.667 115.177 C 83.667 114.559,83.698 114.518,84.208 114.469 L 84.750 114.417 84.799 113.120 C 84.828 112.339,84.912 111.862,85.009 111.922 C 85.239 112.064,85.857 111.839,85.743 111.655 C 85.690 111.570,85.718 111.500,85.804 111.500 C 85.891 111.500,85.973 110.814,85.986 109.976 C 86.012 108.311,86.084 108.083,86.583 108.083 C 87.211 108.083,87.305 107.254,87.323 101.510 C 87.333 98.536,87.363 96.081,87.390 96.054 C 87.417 96.027,91.447 96.001,96.345 95.997 C 101.524 95.992,105.355 95.924,105.500 95.834 C 105.805 95.645,105.787 95.797,105.813 93.177 L 105.833 91.020 106.458 90.968 L 107.083 90.917 107.130 89.042 C 107.177 87.180,107.180 87.167,107.583 87.167 C 108.111 87.167,108.333 86.726,108.333 85.678 L 108.333 84.833 119.500 84.833 L 130.667 84.833 130.688 85.750 C 130.714 86.899,130.720 86.942,130.889 87.111 C 131.034 87.256,131.119 87.278,131.667 87.313 C 131.982 87.332,132.000 87.451,132.000 89.486 C 132.000 92.008,132.041 92.167,132.684 92.167 L 133.167 92.167 133.188 93.833 C 133.199 94.750,133.218 95.594,133.229 95.708 C 133.246 95.874,137.072 95.917,151.750 95.917 L 170.250 95.917 170.292 79.875 L 170.335 63.833 171.001 63.833 L 171.667 63.833 171.667 64.827 C 171.667 65.859,172.005 66.328,172.587 66.105 C 172.753 66.041,172.829 66.207,172.866 66.717 C 172.913 67.372,172.951 67.420,173.458 67.469 C 173.994 67.521,174.000 67.532,174.021 68.427 C 174.047 69.565,174.054 69.609,174.222 69.778 C 174.367 69.923,174.452 69.945,175.000 69.979 C 175.288 69.997,175.334 70.119,175.336 70.875 C 175.339 71.790,175.508 72.235,175.869 72.272 C 175.987 72.285,176.177 72.304,176.292 72.314 C 176.406 72.325,176.500 72.515,176.500 72.736 C 176.500 73.458,176.671 73.667,177.261 73.667 L 177.819 73.667 177.868 74.875 L 177.917 76.083 178.458 76.136 C 178.984 76.186,179.186 76.766,179.014 77.726 C 179.000 77.804,179.065 77.961,179.159 78.075 C 179.253 78.188,179.288 78.323,179.236 78.375 C 179.116 78.496,179.726 78.693,180.024 78.631 C 180.187 78.596,180.273 78.861,180.334 79.583 C 180.434 80.775,180.555 81.000,181.093 81.000 C 181.457 81.000,181.500 81.071,181.500 81.667 C 181.500 82.317,181.514 82.333,182.083 82.333 L 182.667 82.333 182.686 83.208 C 182.696 83.690,182.715 84.180,182.728 84.297 C 182.758 84.585,183.166 84.828,183.625 84.831 C 183.966 84.833,184.000 84.914,184.003 85.708 C 184.005 86.623,184.175 87.068,184.536 87.106 C 184.654 87.118,184.844 87.137,184.958 87.147 C 185.073 87.158,185.167 87.348,185.167 87.570 C 185.167 88.293,185.337 88.500,185.934 88.500 L 186.500 88.500 186.500 89.750 L 186.500 91.000 187.083 91.000 C 187.685 91.000,187.789 91.287,187.686 92.667 C 187.654 93.098,187.963 93.404,188.449 93.425 C 188.899 93.444,188.920 93.483,189.000 94.464 C 189.129 96.041,188.162 95.911,200.109 95.964 C 212.237 96.019,211.232 96.159,211.107 94.428 C 210.967 92.493,210.900 92.333,210.230 92.333 C 209.878 92.333,209.833 92.258,209.833 91.667 C 209.833 91.016,209.819 91.000,209.250 91.000 L 208.667 91.000 208.667 89.833 L 208.667 88.667 208.083 88.667 C 207.495 88.667,207.334 88.229,207.487 87.044 C 207.540 86.636,207.187 86.241,206.736 86.204 C 206.142 86.155,206.170 86.207,206.144 85.101 C 206.120 84.064,205.830 83.585,205.308 83.721 C 205.063 83.786,204.996 83.703,204.979 83.318 C 204.936 82.323,205.008 82.400,204.083 82.354 C 203.681 82.334,203.667 82.294,203.667 81.167 L 203.667 80.000 203.083 80.000 C 202.495 80.000,202.334 79.562,202.487 78.377 C 202.546 77.919,202.151 77.500,201.661 77.500 C 201.174 77.500,200.994 76.810,201.152 75.550 C 201.185 75.290,200.541 74.948,200.237 75.065 C 200.063 75.132,199.999 75.014,199.997 74.620 C 199.995 74.086,199.809 73.625,199.606 73.652 C 198.889 73.748,198.833 73.681,198.831 72.708 C 198.828 71.580,198.747 71.434,198.083 71.358 C 197.451 71.286,197.503 71.380,197.478 70.267 C 197.454 69.236,197.164 68.752,196.651 68.886 C 196.403 68.951,196.342 68.844,196.300 68.274 C 196.252 67.608,196.228 67.581,195.632 67.532 L 195.014 67.481 194.965 66.282 L 194.917 65.083 194.375 65.031 C 193.822 64.978,193.733 64.734,193.811 63.500 C 193.837 63.091,193.435 62.700,192.909 62.623 C 192.638 62.583,193.204 62.530,194.167 62.505 C 195.129 62.481,195.973 62.469,196.042 62.480 C 196.110 62.491,196.178 62.406,196.192 62.292 C 196.206 62.177,196.235 62.008,196.256 61.917 C 196.277 61.825,196.304 61.662,196.314 61.554 C 196.326 61.431,196.808 61.330,197.625 61.280 C 199.701 61.154,199.732 61.144,199.907 60.550 C 200.034 60.119,200.163 60.007,200.574 59.966 C 201.012 59.924,201.091 59.842,201.135 59.384 C 201.182 58.902,201.244 58.847,201.802 58.801 C 202.381 58.753,202.420 58.714,202.468 58.125 C 202.517 57.534,202.551 57.500,203.093 57.500 C 203.637 57.500,203.667 57.470,203.667 56.917 C 203.667 56.347,203.683 56.333,204.333 56.333 C 204.982 56.333,205.000 56.318,205.000 55.761 C 205.000 55.236,205.046 55.183,205.542 55.136 L 206.083 55.083 206.132 53.875 C 206.181 52.679,206.186 52.667,206.641 52.667 C 207.342 52.667,207.500 52.384,207.500 51.133 C 207.500 50.041,207.569 49.898,208.059 49.986 C 208.661 50.094,208.667 49.971,208.667 37.563 L 208.667 25.500 208.083 25.500 L 207.500 25.500 207.479 23.917 C 207.451 21.743,207.473 21.808,206.705 21.705 C 206.143 21.630,206.206 21.763,206.140 20.500 C 206.083 19.417,206.083 19.417,205.551 19.365 C 205.069 19.318,205.014 19.256,204.968 18.698 C 204.940 18.360,204.823 18.074,204.708 18.063 C 204.594 18.051,204.317 18.032,204.094 18.021 C 203.763 18.004,203.678 17.900,203.636 17.458 C 203.590 16.982,203.518 16.910,203.042 16.864 C 202.600 16.822,202.496 16.737,202.479 16.406 C 202.468 16.183,202.449 15.906,202.438 15.792 C 202.426 15.677,202.140 15.560,201.802 15.532 C 201.244 15.486,201.182 15.431,201.135 14.949 C 201.083 14.417,201.083 14.417,200.000 14.360 C 198.737 14.294,198.870 14.357,198.795 13.795 C 198.692 13.027,198.757 13.049,196.583 13.021 L 195.000 13.000 195.000 12.417 L 195.000 11.833 173.417 11.833 L 151.833 11.833 151.797 52.125 C 151.776 74.285,151.737 91.332,151.709 90.007 C 151.655 87.484,151.610 87.341,150.875 87.336 C 150.537 87.334,150.266 84.501,150.486 83.274 C 150.500 83.196,150.435 83.039,150.341 82.925 C 150.247 82.812,150.225 82.658,150.293 82.583 C 150.361 82.508,150.323 82.501,150.208 82.566 C 150.094 82.632,150.000 82.602,150.000 82.499 C 150.000 82.397,149.831 82.336,149.625 82.365 C 149.263 82.415,149.249 82.366,149.208 80.917 C 149.150 78.830,149.099 78.667,148.497 78.667 L 148.000 78.667 147.997 76.458 C 147.996 75.244,147.924 74.137,147.836 74.000 C 147.684 73.760,147.597 73.728,146.963 73.686 C 146.708 73.669,146.671 73.401,146.630 71.292 C 146.595 69.541,146.529 68.911,146.375 68.896 C 146.260 68.884,146.017 68.866,145.833 68.854 C 145.518 68.834,145.500 68.715,145.500 66.595 C 145.500 64.211,145.341 63.705,144.647 63.887 C 144.369 63.959,144.340 63.810,144.297 62.108 L 144.250 60.250 143.629 60.199 L 143.009 60.147 142.963 57.699 L 142.917 55.250 142.375 55.198 L 141.833 55.146 141.814 53.198 C 141.803 52.126,141.805 51.186,141.819 51.107 C 141.834 51.029,141.768 50.872,141.674 50.759 C 141.580 50.645,141.558 50.491,141.626 50.416 C 141.694 50.341,141.656 50.334,141.542 50.400 C 141.427 50.466,141.333 50.436,141.333 50.333 C 141.333 50.230,141.165 50.169,140.958 50.198 C 140.591 50.249,140.582 50.212,140.536 48.375 L 140.489 46.500 139.911 46.500 L 139.333 46.500 139.333 44.417 C 139.333 43.271,139.346 42.315,139.361 42.292 C 139.449 42.163,138.950 41.493,138.783 41.514 C 137.996 41.613,138.000 41.624,137.997 39.292 C 137.995 36.908,137.962 36.779,137.333 36.692 C 137.104 36.660,136.900 36.619,136.881 36.601 C 136.861 36.582,136.835 35.575,136.823 34.363 C 136.800 32.021,136.648 31.546,135.975 31.721 C 135.691 31.796,135.665 31.670,135.646 30.151 C 135.634 29.243,135.616 28.406,135.604 28.292 C 135.593 28.177,135.306 28.060,134.963 28.032 L 134.342 27.980 134.296 25.532 L 134.250 23.083 133.708 23.031 L 133.167 22.979 133.147 21.031 C 133.136 19.960,133.139 19.019,133.153 18.941 C 133.205 18.649,132.970 18.165,132.821 18.257 C 132.736 18.310,132.667 18.269,132.667 18.166 C 132.667 18.063,132.498 18.003,132.292 18.031 C 131.924 18.082,131.916 18.045,131.870 16.208 L 131.822 14.333 131.245 14.333 L 130.667 14.333 130.667 13.083 L 130.667 11.833 119.583 11.833 L 108.500 11.833 108.500 12.417 C 108.500 12.951,108.459 13.000,108.010 13.000 C 107.242 13.000,107.216 13.074,107.188 15.318 C 107.168 16.837,107.142 16.962,106.858 16.888 C 106.193 16.714,106.034 17.193,106.011 19.437 C 105.987 21.682,105.953 21.869,105.595 21.731 C 105.470 21.683,105.317 21.725,105.255 21.825 C 105.194 21.924,105.062 21.955,104.963 21.894 C 104.859 21.829,104.829 21.859,104.894 21.963 C 104.955 22.062,104.937 22.186,104.853 22.238 C 104.769 22.290,104.690 23.285,104.677 24.451 C 104.651 26.776,104.670 26.695,104.130 26.751 C 103.921 26.773,103.696 26.800,103.631 26.812 C 103.565 26.824,103.490 27.640,103.464 28.625 C 103.419 30.321,103.397 30.419,103.054 30.468 C 102.366 30.566,102.253 30.931,102.192 33.256 C 102.142 35.205,102.103 35.453,101.859 35.395 C 101.111 35.216,101.035 35.492,101.014 38.458 C 101.001 40.191,100.976 40.333,100.680 40.333 C 99.850 40.333,99.833 40.384,99.833 42.924 L 99.833 45.313 99.208 45.365 C 98.862 45.394,98.574 45.510,98.563 45.625 C 98.551 45.740,98.532 46.576,98.521 47.484 C 98.502 49.004,98.475 49.129,98.192 49.055 C 97.519 48.879,97.366 49.354,97.343 51.696 C 97.332 52.908,97.306 53.915,97.286 53.934 C 97.266 53.952,97.063 53.993,96.833 54.025 C 96.140 54.122,96.038 54.451,96.011 56.662 C 95.984 58.940,96.003 58.862,95.464 58.918 C 94.869 58.980,94.832 58.992,94.853 59.125 C 94.864 59.194,94.864 60.003,94.853 60.924 L 94.833 62.598 94.292 62.757 C 93.621 62.955,93.546 63.248,93.520 65.786 C 93.503 67.329,93.459 67.640,93.263 67.565 C 93.007 67.467,92.325 67.766,92.355 67.963 C 92.541 69.200,92.293 72.500,92.014 72.500 C 91.183 72.500,91.167 72.551,91.167 75.091 L 91.167 77.480 90.542 77.532 L 89.917 77.583 89.870 79.441 C 89.827 81.144,89.797 81.293,89.520 81.220 C 88.826 81.039,88.667 81.544,88.667 83.929 C 88.667 86.316,88.662 86.328,87.787 86.185 C 87.716 86.173,87.603 86.296,87.537 86.457 C 87.471 86.618,87.379 74.284,87.333 59.049 C 87.251 31.599,87.247 31.345,86.917 31.078 C 86.733 30.930,86.677 30.856,86.792 30.914 C 86.906 30.972,87.000 30.938,87.000 30.839 C 87.000 30.740,86.775 30.613,86.500 30.558 L 86.000 30.458 86.000 28.884 C 86.000 27.208,85.850 26.833,85.179 26.833 C 84.865 26.833,84.663 25.618,84.812 24.630 C 84.841 24.439,84.163 24.132,83.920 24.226 C 83.769 24.283,83.673 24.116,83.615 23.697 C 83.380 21.979,83.371 21.959,82.792 21.917 C 82.487 21.896,82.401 21.768,82.333 21.237 C 82.257 20.642,82.202 20.579,81.708 20.531 C 81.237 20.486,81.167 20.418,81.167 20.007 C 81.167 19.510,80.923 19.333,80.236 19.333 C 79.908 19.333,79.833 19.248,79.831 18.875 C 79.827 18.285,79.681 18.097,79.167 18.025 C 78.654 17.954,78.603 17.871,78.512 16.958 C 78.506 16.890,78.243 16.833,77.930 16.833 C 77.432 16.833,77.346 16.770,77.250 16.333 C 77.190 16.058,77.090 15.824,77.028 15.812 C 76.967 15.800,76.767 15.761,76.583 15.725 C 76.400 15.688,75.936 15.615,75.553 15.563 C 75.068 15.496,74.882 15.400,74.941 15.247 C 75.175 14.637,74.694 14.333,73.494 14.333 C 72.374 14.333,72.231 14.266,72.319 13.774 C 72.361 13.543,72.000 13.191,71.697 13.166 C 71.543 13.154,70.731 13.106,69.894 13.060 C 68.490 12.984,68.377 12.952,68.455 12.655 C 68.676 11.808,69.596 11.833,39.005 11.833 L 10.667 11.833 10.667 69.333 M212.541 53.875 L 212.583 95.917 221.750 95.917 L 230.917 95.917 230.959 79.875 L 231.002 63.833 231.667 63.833 C 232.305 63.833,232.334 63.857,232.347 64.375 C 232.385 65.906,232.560 66.256,233.208 66.101 C 233.447 66.044,233.500 66.146,233.500 66.664 C 233.500 67.332,233.685 67.500,234.423 67.500 C 234.798 67.500,234.821 67.562,234.868 68.695 C 234.916 69.882,234.920 69.890,235.414 69.956 C 236.036 70.038,235.973 69.916,236.018 71.138 C 236.056 72.196,236.346 72.637,236.884 72.454 C 237.015 72.410,237.140 72.762,237.250 73.485 C 237.408 74.523,237.446 74.592,237.950 74.741 C 238.405 74.875,238.491 74.985,238.534 75.491 C 238.578 76.025,238.636 76.088,239.125 76.136 C 239.660 76.187,239.667 76.198,239.688 77.094 C 239.720 78.498,239.808 78.667,240.510 78.667 C 240.977 78.667,241.196 79.541,241.021 80.703 C 240.993 80.894,241.670 81.201,241.914 81.107 C 242.078 81.044,242.165 81.318,242.251 82.177 C 242.315 82.813,242.434 83.291,242.517 83.240 C 242.599 83.189,242.667 83.226,242.667 83.323 C 242.667 83.421,242.850 83.500,243.073 83.500 C 243.423 83.500,243.487 83.588,243.532 84.125 C 243.579 84.696,243.630 84.755,244.125 84.802 L 244.667 84.854 244.686 85.886 C 244.697 86.453,244.697 86.973,244.686 87.042 C 244.676 87.110,244.760 87.178,244.875 87.192 C 244.990 87.206,245.158 87.235,245.250 87.256 C 245.342 87.277,245.500 87.304,245.602 87.314 C 245.703 87.325,245.830 87.751,245.882 88.262 C 245.989 89.292,246.181 89.622,246.720 89.698 C 246.994 89.737,247.104 89.893,247.167 90.333 C 247.240 90.849,247.313 90.923,247.792 90.969 L 248.333 91.021 248.333 92.061 C 248.333 93.216,248.505 93.500,249.200 93.500 C 249.652 93.500,249.667 93.529,249.688 94.417 C 249.716 95.657,249.716 95.657,250.000 95.836 C 250.354 96.058,287.282 96.052,287.419 95.829 C 287.476 95.737,287.612 95.712,287.720 95.774 C 287.828 95.836,287.861 95.825,287.793 95.750 C 287.725 95.675,287.747 95.521,287.841 95.408 C 287.935 95.295,288.000 95.138,287.986 95.059 C 287.972 94.981,287.969 94.035,287.980 92.958 L 288.000 91.000 288.583 91.000 L 289.167 91.000 289.167 89.083 L 289.167 87.167 289.577 87.167 C 290.112 87.167,290.333 86.730,290.333 85.678 L 290.333 84.833 301.576 84.833 L 312.819 84.833 312.868 86.042 C 312.901 86.857,312.984 87.257,313.125 87.271 C 313.240 87.282,313.483 87.301,313.667 87.313 C 313.982 87.332,314.000 87.451,314.000 89.486 C 314.000 92.008,314.041 92.167,314.684 92.167 L 315.167 92.167 315.188 93.833 C 315.199 94.750,315.218 95.594,315.229 95.708 C 315.251 95.922,351.099 96.127,351.958 95.918 L 352.333 95.827 352.355 75.955 C 352.367 65.026,352.424 56.346,352.480 56.667 C 352.564 57.142,352.682 57.279,353.118 57.408 C 353.648 57.564,353.654 57.576,353.702 58.741 L 353.750 59.917 354.292 59.969 C 354.832 60.021,354.991 60.497,354.846 61.623 C 354.812 61.885,355.138 62.503,355.297 62.479 C 356.070 62.362,356.151 62.471,356.201 63.695 C 356.250 64.882,356.253 64.890,356.747 64.956 C 357.377 65.039,357.330 64.956,357.355 66.039 C 357.381 67.166,357.509 67.399,358.115 67.425 C 358.576 67.444,358.585 67.463,358.667 68.681 C 358.722 69.497,358.821 69.924,358.958 69.938 C 359.073 69.949,359.313 69.968,359.493 69.979 C 359.780 69.997,359.825 70.145,359.868 71.208 L 359.917 72.417 360.458 72.469 C 360.994 72.521,361.000 72.532,361.021 73.427 C 361.032 73.926,361.051 74.427,361.063 74.542 C 361.074 74.657,361.362 74.773,361.708 74.802 L 362.333 74.853 362.333 76.093 L 362.333 77.333 362.909 77.333 L 363.485 77.333 363.534 78.542 L 363.583 79.750 364.208 79.802 L 364.833 79.853 364.833 81.093 L 364.833 82.333 365.409 82.333 L 365.985 82.333 366.034 83.542 L 366.083 84.750 366.708 84.802 L 367.333 84.853 367.333 86.093 C 367.333 86.775,367.390 87.324,367.458 87.314 C 367.527 87.303,367.790 87.303,368.042 87.314 L 368.500 87.333 368.500 88.905 C 368.500 90.590,368.720 91.112,369.358 90.945 C 369.609 90.880,369.669 90.964,369.679 91.391 C 369.686 91.680,369.729 92.067,369.775 92.250 C 369.820 92.433,369.856 92.716,369.855 92.879 C 369.854 93.041,369.924 93.130,370.010 93.077 C 370.096 93.024,370.167 93.055,370.167 93.145 C 370.167 93.236,370.335 93.334,370.542 93.363 C 370.874 93.411,370.926 93.535,371.000 94.450 C 371.128 96.041,370.273 95.917,381.050 95.917 L 390.583 95.917 390.625 53.875 L 390.667 11.833 381.518 11.833 C 373.329 11.833,372.358 11.861,372.268 12.097 C 372.212 12.242,372.166 21.148,372.164 31.889 C 372.163 43.821,372.102 51.323,372.008 51.175 C 371.924 51.042,371.887 50.881,371.926 50.819 C 371.965 50.756,371.885 50.612,371.748 50.498 C 371.612 50.385,371.500 50.342,371.500 50.402 C 371.500 50.462,371.350 50.431,371.167 50.333 C 370.901 50.191,370.833 49.984,370.833 49.317 C 370.833 48.270,370.611 47.833,370.077 47.833 C 369.708 47.833,369.665 47.762,369.649 47.125 C 369.639 46.735,369.615 46.304,369.594 46.167 C 369.574 46.029,369.544 45.785,369.529 45.625 C 369.508 45.418,369.354 45.333,369.000 45.333 C 368.504 45.333,368.343 44.826,368.487 43.710 C 368.521 43.448,368.196 42.831,368.037 42.855 C 367.262 42.971,367.183 42.864,367.132 41.625 L 367.083 40.417 366.542 40.364 C 366.002 40.312,365.842 39.836,365.987 38.710 C 366.021 38.448,365.696 37.831,365.537 37.855 C 364.762 37.971,364.683 37.864,364.632 36.625 L 364.583 35.417 364.042 35.364 C 363.503 35.313,363.500 35.307,363.500 34.406 C 363.500 33.908,363.494 33.444,363.486 33.375 C 363.451 33.070,363.088 32.833,362.654 32.833 C 362.183 32.833,362.181 32.828,362.132 31.639 C 362.084 30.452,362.080 30.443,361.586 30.378 C 360.969 30.296,361.039 30.435,360.973 29.167 L 360.917 28.083 360.382 28.032 L 359.848 27.980 359.799 26.782 L 359.750 25.583 359.125 25.532 L 358.500 25.480 358.500 24.240 L 358.500 23.000 357.924 23.000 L 357.348 23.000 357.299 21.792 L 357.250 20.583 356.632 20.532 L 356.014 20.481 355.965 19.282 L 355.917 18.083 355.387 18.032 L 354.858 17.981 354.775 16.615 C 354.645 14.492,354.584 14.333,353.896 14.333 C 353.523 14.333,353.500 14.275,353.500 13.333 C 353.500 12.741,353.428 12.333,353.323 12.333 C 353.226 12.333,353.188 12.266,353.239 12.184 C 353.431 11.873,352.586 11.844,343.333 11.836 L 333.833 11.828 333.797 52.123 C 333.776 74.284,333.737 91.332,333.709 90.007 C 333.655 87.484,333.610 87.341,332.875 87.336 C 332.541 87.334,332.267 84.199,332.479 82.797 C 332.508 82.600,331.826 82.301,331.570 82.399 C 331.376 82.473,331.333 82.206,331.333 80.900 C 331.333 79.049,331.190 78.667,330.494 78.667 L 330.000 78.667 330.000 76.417 C 330.000 75.179,330.006 74.119,330.014 74.060 C 330.038 73.882,329.605 73.672,329.208 73.669 C 328.862 73.667,328.624 71.237,328.820 69.710 C 328.880 69.252,328.485 68.833,327.994 68.833 L 327.500 68.833 327.500 66.595 C 327.500 64.211,327.341 63.705,326.647 63.887 C 326.369 63.959,326.340 63.810,326.297 62.108 L 326.250 60.250 325.625 60.198 L 325.000 60.147 325.000 57.692 L 325.000 55.238 324.467 55.197 C 323.783 55.145,323.852 55.403,323.824 52.782 C 323.798 50.377,323.644 49.948,322.904 50.232 C 322.704 50.309,322.544 47.917,322.681 46.894 C 322.707 46.702,322.259 46.505,321.792 46.503 L 321.333 46.500 321.333 44.250 C 321.333 43.012,321.340 41.952,321.348 41.894 C 321.371 41.715,320.938 41.505,320.542 41.503 C 320.195 41.500,319.956 39.057,320.155 37.539 C 320.200 37.191,319.777 36.754,319.333 36.692 C 319.104 36.660,318.900 36.619,318.881 36.601 C 318.861 36.582,318.835 35.575,318.823 34.363 C 318.800 32.021,318.648 31.546,317.975 31.721 C 317.691 31.796,317.665 31.670,317.646 30.151 C 317.634 29.243,317.616 28.406,317.604 28.292 C 317.593 28.176,317.304 28.060,316.958 28.032 L 316.333 27.980 316.333 25.490 C 316.333 24.120,316.277 23.009,316.208 23.020 C 316.140 23.031,315.877 23.031,315.625 23.020 L 315.167 23.000 315.167 20.673 C 315.167 18.218,315.007 17.770,314.237 18.065 C 314.037 18.142,313.877 15.750,314.014 14.727 C 314.040 14.535,313.592 14.338,313.125 14.336 L 312.667 14.333 312.667 13.083 L 312.667 11.833 301.583 11.833 L 290.500 11.833 290.500 12.417 C 290.500 12.882,290.433 13.004,290.167 13.021 C 289.175 13.083,289.217 12.986,289.188 15.250 C 289.169 16.638,289.131 16.834,288.875 16.836 C 288.073 16.843,288.035 16.982,288.014 19.968 C 288.004 21.289,287.945 21.819,287.817 21.740 C 287.116 21.307,286.867 21.961,286.842 24.305 C 286.816 26.819,286.842 26.708,286.260 26.708 C 285.845 26.708,285.464 26.997,285.514 27.274 C 285.730 28.479,285.466 30.500,285.093 30.500 C 284.486 30.500,284.424 30.717,284.333 33.167 C 284.268 34.941,284.202 35.407,284.024 35.369 C 283.900 35.343,283.705 35.399,283.592 35.493 C 283.479 35.587,283.343 35.621,283.292 35.569 C 283.192 35.470,282.971 36.032,283.014 36.274 C 283.028 36.353,283.031 37.293,283.020 38.364 L 283.000 40.312 282.458 40.364 L 281.917 40.417 281.871 42.865 L 281.825 45.314 281.204 45.365 C 280.861 45.394,280.574 45.510,280.563 45.625 C 280.551 45.740,280.532 46.546,280.521 47.417 C 280.502 48.862,280.472 49.000,280.179 49.000 C 279.481 49.000,279.366 49.370,279.343 51.696 C 279.332 52.908,279.304 53.918,279.283 53.939 C 279.262 53.961,279.020 54.008,278.747 54.045 L 278.250 54.111 278.197 56.427 C 278.139 59.009,278.172 58.875,277.585 58.875 C 277.235 58.875,276.667 59.421,276.805 59.625 C 277.060 60.002,276.785 62.789,276.500 62.715 C 276.306 62.664,276.167 62.710,276.167 62.824 C 276.167 62.931,276.100 62.978,276.017 62.927 C 275.763 62.770,275.703 63.195,275.678 65.327 C 275.651 67.521,275.618 67.701,275.262 67.565 C 275.136 67.517,274.983 67.559,274.922 67.658 C 274.861 67.757,274.722 67.788,274.613 67.726 C 274.505 67.664,274.472 67.675,274.540 67.750 C 274.608 67.825,274.587 67.979,274.493 68.092 C 274.399 68.205,274.333 68.362,274.347 68.441 C 274.361 68.519,274.364 69.460,274.353 70.531 L 274.333 72.479 273.792 72.531 L 273.250 72.583 273.204 75.032 L 273.158 77.480 272.537 77.532 L 271.917 77.583 271.870 79.441 C 271.827 81.144,271.797 81.293,271.520 81.220 C 270.826 81.039,270.667 81.544,270.667 83.929 C 270.667 86.049,270.649 86.168,270.333 86.188 C 270.150 86.199,269.906 86.218,269.792 86.229 C 269.640 86.244,269.559 86.909,269.493 88.667 C 269.443 89.996,269.378 90.652,269.347 90.125 C 269.317 89.598,269.282 89.073,269.271 88.958 C 269.259 88.844,269.017 88.727,268.731 88.699 C 268.225 88.650,268.210 88.624,268.106 87.616 C 267.996 86.558,267.737 86.167,267.145 86.167 C 266.928 86.167,266.840 86.006,266.802 85.542 C 266.755 84.971,266.703 84.912,266.208 84.864 C 265.667 84.812,265.667 84.811,265.664 83.864 C 265.661 82.738,265.547 82.517,264.907 82.401 C 264.291 82.289,264.332 82.360,264.309 81.349 C 264.288 80.399,263.981 79.923,263.475 80.055 C 263.215 80.123,263.167 80.036,263.167 79.502 C 263.167 78.853,262.978 78.667,262.320 78.667 C 262.046 78.667,261.997 78.535,261.979 77.750 C 261.947 76.336,261.930 76.302,261.205 76.205 C 260.638 76.129,260.693 76.245,260.649 75.029 C 260.611 73.971,260.321 73.530,259.782 73.713 C 259.651 73.757,259.526 73.405,259.417 72.682 C 259.259 71.644,259.221 71.575,258.716 71.426 C 258.261 71.292,258.176 71.182,258.133 70.676 C 258.088 70.141,258.030 70.078,257.542 70.031 C 257.006 69.979,257.000 69.968,256.979 69.073 C 256.947 67.669,256.858 67.500,256.157 67.500 C 255.674 67.500,255.667 67.487,255.667 66.583 C 255.667 66.079,255.657 65.610,255.644 65.542 C 255.602 65.307,254.985 64.970,254.758 65.057 C 254.587 65.123,254.503 64.863,254.416 63.989 C 254.352 63.354,254.232 62.876,254.150 62.927 C 254.067 62.978,254.000 62.940,254.000 62.843 C 254.000 62.746,253.855 62.667,253.677 62.667 C 253.425 62.667,253.342 62.531,253.302 62.052 C 253.254 61.485,253.204 61.432,252.667 61.371 C 251.946 61.290,252.026 61.437,251.984 60.121 C 251.962 59.463,251.872 58.990,251.765 58.975 C 251.665 58.961,251.508 58.932,251.417 58.911 C 251.325 58.889,251.167 58.863,251.065 58.853 C 250.963 58.842,250.837 58.416,250.784 57.905 C 250.678 56.875,250.486 56.545,249.946 56.468 C 249.673 56.429,249.563 56.273,249.500 55.833 C 249.426 55.318,249.354 55.244,248.875 55.198 L 248.333 55.146 248.333 53.906 C 248.333 52.795,248.367 52.667,248.653 52.667 C 249.290 52.667,249.500 52.477,249.500 51.899 C 249.500 51.464,249.570 51.333,249.801 51.333 C 250.405 51.333,250.662 50.947,250.773 49.875 C 250.876 48.876,250.899 48.833,251.339 48.833 C 251.891 48.833,252.000 48.598,252.000 47.403 C 252.000 46.556,252.026 46.499,252.417 46.479 C 253.333 46.433,253.265 46.500,253.313 45.604 C 253.328 45.307,253.455 45.184,253.823 45.110 C 254.294 45.016,254.316 44.969,254.427 43.840 C 254.524 42.857,254.594 42.663,254.855 42.646 C 255.026 42.634,255.260 42.616,255.375 42.604 C 255.515 42.590,255.599 42.192,255.632 41.385 L 255.681 40.186 256.299 40.135 C 256.639 40.106,256.926 39.990,256.938 39.875 C 256.949 39.760,256.968 39.259,256.979 38.761 C 257.000 37.865,257.006 37.854,257.542 37.802 C 258.030 37.755,258.088 37.692,258.133 37.157 C 258.176 36.651,258.261 36.541,258.716 36.407 C 259.055 36.308,259.267 36.128,259.298 35.917 C 259.324 35.733,259.388 35.231,259.439 34.801 C 259.526 34.069,259.566 34.015,260.058 33.968 L 260.583 33.917 260.632 32.718 L 260.681 31.519 261.299 31.468 C 261.639 31.440,261.926 31.323,261.938 31.208 C 261.949 31.094,261.968 30.587,261.979 30.083 C 261.997 29.298,262.046 29.167,262.320 29.167 C 262.985 29.167,263.167 28.982,263.167 28.306 C 263.167 27.905,263.233 27.688,263.335 27.751 C 263.570 27.897,264.192 27.676,264.076 27.488 C 264.023 27.403,264.050 27.333,264.135 27.333 C 264.220 27.333,264.299 26.908,264.311 26.389 C 264.337 25.288,264.285 25.381,264.917 25.308 C 265.587 25.232,265.661 25.090,265.664 23.875 L 265.667 22.833 266.250 22.833 C 266.799 22.833,266.833 22.801,266.833 22.284 C 266.833 21.809,266.906 21.714,267.375 21.576 C 267.721 21.474,267.934 21.296,267.964 21.083 C 267.991 20.900,268.054 20.398,268.106 19.968 C 268.193 19.235,268.232 19.182,268.724 19.134 L 269.250 19.083 269.299 17.885 L 269.348 16.686 269.965 16.635 L 270.583 16.583 270.632 15.385 L 270.681 14.187 271.215 14.135 C 271.783 14.080,272.017 13.254,271.757 12.218 L 271.659 11.827 260.704 11.872 L 249.750 11.917 249.701 13.115 L 249.652 14.314 249.035 14.365 L 248.417 14.417 248.368 15.615 L 248.319 16.813 247.785 16.865 C 247.314 16.910,247.240 16.986,247.167 17.500 C 247.103 17.947,246.995 18.096,246.708 18.137 C 246.502 18.166,246.333 18.264,246.333 18.355 C 246.333 18.445,246.263 18.476,246.177 18.423 C 246.091 18.370,246.015 18.459,246.008 18.621 C 245.944 20.133,245.811 20.480,245.276 20.532 L 244.750 20.583 244.701 21.782 L 244.652 22.980 244.118 23.032 C 243.661 23.076,243.576 23.156,243.531 23.583 C 243.473 24.139,243.092 24.525,242.735 24.388 C 242.417 24.266,242.214 24.959,242.180 26.286 C 242.170 26.678,242.103 26.798,241.930 26.732 C 241.323 26.499,241.000 26.966,241.000 28.079 L 241.000 29.147 240.375 29.198 L 239.750 29.250 239.701 30.458 L 239.652 31.667 239.076 31.667 C 238.528 31.667,238.500 31.695,238.500 32.255 C 238.500 32.670,238.414 32.870,238.208 32.934 C 237.665 33.102,237.446 33.267,237.390 33.551 C 237.359 33.706,237.302 33.965,237.263 34.125 C 237.224 34.285,237.186 34.658,237.179 34.953 C 237.170 35.345,237.103 35.465,236.930 35.399 C 236.321 35.165,236.000 35.633,236.000 36.756 L 236.000 37.833 235.417 37.833 L 234.833 37.833 234.833 39.083 L 234.833 40.333 234.268 40.333 C 233.670 40.333,233.500 40.540,233.500 41.264 C 233.500 41.581,233.413 41.667,233.089 41.667 C 232.555 41.667,232.333 42.103,232.333 43.156 L 232.333 44.000 231.667 44.000 L 231.000 44.000 231.000 28.180 C 231.000 19.479,230.954 12.242,230.899 12.097 C 230.808 11.861,229.838 11.833,221.649 11.833 L 212.499 11.833 212.541 53.875 M187.833 30.679 C 187.833 31.121,188.213 31.500,188.655 31.500 C 188.893 31.500,189.000 31.607,189.000 31.845 C 189.000 32.287,189.379 32.667,189.821 32.667 C 190.163 32.667,190.167 32.719,190.167 37.739 L 190.167 42.812 189.625 42.864 C 189.149 42.910,189.077 42.982,189.031 43.458 L 188.979 44.000 179.656 44.000 L 170.333 44.000 170.333 37.167 L 170.333 30.333 179.083 30.333 C 187.823 30.333,187.833 30.334,187.833 30.679 M60.198 37.125 C 60.245 37.693,60.299 37.755,60.782 37.801 C 61.245 37.846,61.320 37.922,61.365 38.385 C 61.412 38.868,61.474 38.921,62.042 38.968 L 62.667 39.020 62.667 69.343 C 62.667 99.549,62.665 99.667,62.333 99.688 C 61.785 99.722,61.701 99.744,61.556 99.889 C 61.410 100.034,61.388 100.119,61.354 100.667 C 61.338 100.933,61.215 101.000,60.750 101.000 C 60.194 101.000,60.167 101.028,60.167 101.583 L 60.167 102.167 47.750 102.167 L 35.333 102.167 35.333 69.333 L 35.333 36.500 47.740 36.500 L 60.147 36.500 60.198 37.125 M301.676 43.885 C 301.702 46.290,301.856 46.719,302.596 46.435 C 302.791 46.360,302.834 46.634,302.840 47.964 C 302.850 50.714,303.020 51.333,303.765 51.333 C 304.149 51.333,304.157 51.366,304.203 53.208 C 304.237 54.558,304.308 55.089,304.458 55.104 C 304.573 55.116,304.817 55.134,305.000 55.146 C 305.315 55.166,305.333 55.285,305.333 57.320 C 305.333 59.834,305.375 60.000,306.008 60.000 L 306.480 60.000 306.553 61.958 C 306.654 64.712,306.657 64.723,307.292 64.909 C 307.780 65.053,307.833 65.132,307.833 65.701 L 307.833 66.333 301.576 66.333 L 295.319 66.333 295.368 65.042 C 295.405 64.061,295.471 63.761,295.643 63.798 C 295.767 63.824,295.961 63.768,296.075 63.674 C 296.188 63.580,296.342 63.558,296.417 63.626 C 296.492 63.694,296.503 63.661,296.441 63.553 C 296.379 63.445,296.396 63.314,296.480 63.262 C 296.564 63.210,296.643 62.215,296.656 61.049 C 296.683 58.724,296.663 58.805,297.203 58.749 C 297.412 58.727,297.640 58.700,297.708 58.688 C 297.777 58.676,297.833 57.579,297.833 56.250 L 297.833 53.833 298.411 53.833 L 298.989 53.833 299.036 51.958 C 299.081 50.194,299.103 50.086,299.417 50.124 C 300.245 50.226,300.298 50.044,300.320 47.052 L 300.333 45.188 300.875 45.136 L 301.417 45.083 301.464 43.270 C 301.530 40.776,301.646 41.115,301.676 43.885 M119.557 45.593 C 119.513 45.707,119.559 45.850,119.658 45.911 C 119.757 45.973,119.788 46.104,119.727 46.204 C 119.663 46.308,119.692 46.337,119.796 46.273 C 119.896 46.212,120.024 46.237,120.082 46.331 C 120.139 46.424,120.332 46.500,120.510 46.500 C 120.809 46.500,120.834 46.634,120.847 48.292 C 120.869 51.177,120.948 51.450,121.708 51.268 C 121.970 51.205,122.002 51.367,122.021 52.849 C 122.045 54.788,122.043 54.765,122.222 54.944 C 122.367 55.089,122.452 55.111,122.995 55.146 C 123.304 55.165,123.327 55.313,123.370 57.542 L 123.417 59.917 123.949 59.968 L 124.481 60.020 124.557 62.052 C 124.663 64.874,124.701 65.000,125.437 65.000 C 125.788 65.000,125.833 65.076,125.833 65.667 L 125.833 66.333 119.583 66.333 L 113.333 66.333 113.333 65.005 C 113.333 63.926,113.378 63.694,113.570 63.768 C 114.310 64.052,114.465 63.623,114.491 61.218 C 114.504 59.959,114.532 58.912,114.553 58.891 C 114.574 58.871,114.794 58.817,115.043 58.772 C 115.623 58.666,115.848 58.524,115.818 58.279 C 115.805 58.171,115.803 57.127,115.814 55.958 L 115.833 53.833 116.411 53.833 L 116.989 53.833 117.036 51.958 C 117.073 50.486,117.132 50.094,117.309 50.131 C 117.433 50.157,117.628 50.101,117.741 50.007 C 117.855 49.913,117.990 49.879,118.042 49.931 C 118.141 50.030,118.363 49.468,118.319 49.226 C 118.305 49.147,118.303 48.207,118.314 47.136 L 118.333 45.188 118.875 45.136 C 119.444 45.081,119.690 45.246,119.557 45.593 M213.767 101.266 C 213.643 101.589,213.639 131.235,213.763 131.558 C 213.838 131.753,214.315 131.805,216.178 131.824 L 218.500 131.847 218.500 125.007 L 218.500 118.167 219.833 118.167 C 221.126 118.167,221.167 118.179,221.167 118.563 C 221.167 119.132,221.482 119.319,222.642 119.440 L 223.667 119.547 223.667 120.107 C 223.667 120.635,223.699 120.667,224.250 120.667 L 224.833 120.667 224.847 121.792 C 224.869 123.628,225.035 124.408,225.375 124.286 C 225.936 124.085,226.167 124.489,226.167 125.673 C 226.167 126.311,226.223 126.824,226.292 126.814 C 227.242 126.664,227.333 126.775,227.333 128.083 L 227.333 129.333 227.917 129.333 L 228.500 129.333 228.500 130.320 C 228.500 131.907,228.379 131.833,231.000 131.833 C 233.552 131.833,233.500 131.857,233.500 130.667 C 233.500 129.696,233.371 129.500,232.732 129.500 L 232.167 129.500 232.167 127.989 C 232.167 126.285,232.008 125.833,231.411 125.833 C 231.018 125.833,231.000 125.787,230.997 124.792 C 230.995 123.817,230.854 123.286,230.606 123.319 C 229.699 123.441,229.667 123.398,229.667 122.083 L 229.667 120.833 229.083 120.833 L 228.500 120.833 228.479 119.833 C 228.468 119.283,228.449 118.740,228.438 118.625 C 228.426 118.510,228.138 118.394,227.792 118.365 C 227.184 118.315,227.167 118.295,227.167 117.657 L 227.167 117.000 228.417 117.000 L 229.667 117.000 229.667 116.427 C 229.667 115.885,229.701 115.851,230.292 115.802 C 230.881 115.753,230.920 115.715,230.968 115.135 C 231.014 114.578,231.069 114.515,231.551 114.468 L 232.083 114.417 232.128 109.678 C 232.175 104.642,232.180 104.675,231.375 104.669 C 231.025 104.667,230.840 103.923,230.986 103.107 C 231.000 103.029,230.935 102.872,230.841 102.759 C 230.747 102.645,230.725 102.491,230.793 102.416 C 230.861 102.341,230.823 102.334,230.708 102.400 C 230.594 102.466,230.500 102.436,230.500 102.333 C 230.500 102.230,230.369 102.159,230.208 102.175 C 229.151 102.283,228.500 102.158,228.500 101.847 C 228.500 100.949,228.884 100.993,221.080 101.003 C 214.797 101.012,213.851 101.046,213.767 101.266 M236.077 101.208 C 236.033 101.323,236.017 108.242,236.040 116.583 L 236.083 131.750 244.333 131.796 C 254.092 131.851,253.299 131.947,253.293 130.710 C 253.287 129.428,253.697 129.505,246.875 129.503 L 240.833 129.500 240.833 123.252 L 240.833 117.004 246.375 116.961 L 251.917 116.917 251.969 116.180 C 251.998 115.775,251.978 115.269,251.924 115.055 L 251.827 114.667 246.330 114.667 L 240.833 114.667 240.833 109.000 L 240.833 103.333 246.417 103.333 L 252.000 103.333 252.000 102.167 L 252.000 101.000 244.078 101.000 C 237.894 101.000,236.139 101.046,236.077 101.208 M257.097 101.275 C 256.975 101.592,256.975 131.241,257.097 131.558 C 257.172 131.754,257.657 131.806,259.595 131.824 L 262.000 131.847 262.000 122.912 C 262.000 114.610,262.019 113.996,262.275 114.251 C 262.426 114.402,262.689 114.490,262.858 114.445 C 263.130 114.374,263.169 114.477,263.186 115.307 C 263.196 115.826,263.223 116.325,263.244 116.417 C 263.265 116.508,263.294 116.677,263.308 116.792 C 263.322 116.906,263.390 116.991,263.458 116.980 C 264.380 116.835,264.483 116.952,264.534 118.208 L 264.583 119.417 265.125 119.469 L 265.667 119.521 265.667 120.561 C 265.667 121.716,265.838 122.000,266.533 122.000 C 266.999 122.000,267.000 122.002,267.000 123.149 C 267.000 124.349,267.095 124.500,267.847 124.500 C 268.127 124.500,268.168 124.630,268.179 125.542 C 268.186 126.115,268.228 126.733,268.271 126.917 C 268.314 127.100,268.365 127.400,268.383 127.583 C 268.404 127.794,268.546 127.923,268.769 127.934 C 269.403 127.967,269.500 128.152,269.500 129.325 C 269.500 130.514,269.596 130.667,270.347 130.667 C 270.601 130.667,270.667 130.786,270.667 131.250 L 270.667 131.833 272.292 131.831 C 273.785 131.828,274.384 131.715,274.348 131.440 C 274.340 131.381,274.333 130.888,274.333 130.344 L 274.333 129.354 274.875 129.302 L 275.417 129.250 275.465 128.074 C 275.513 126.910,275.519 126.897,276.047 126.741 C 276.655 126.562,276.806 126.071,276.824 124.219 L 276.833 123.188 277.375 123.136 L 277.917 123.083 277.966 121.875 C 278.014 120.685,278.022 120.667,278.466 120.664 C 278.927 120.662,279.373 120.464,279.348 120.273 C 279.174 118.976,279.354 118.167,279.816 118.167 C 280.401 118.167,280.500 117.948,280.500 116.653 C 280.500 115.718,280.521 115.667,280.907 115.667 C 281.490 115.667,281.572 115.445,281.678 113.583 C 281.730 112.667,281.793 116.117,281.817 121.250 C 281.866 131.883,281.853 131.473,282.157 131.661 C 282.283 131.739,283.349 131.812,284.526 131.823 L 286.667 131.844 286.667 116.417 L 286.667 100.991 284.292 101.037 L 281.917 101.083 281.868 102.259 C 281.820 103.424,281.815 103.436,281.285 103.592 C 280.660 103.777,280.550 104.114,280.520 105.948 L 280.500 107.146 279.958 107.198 L 279.417 107.250 279.368 108.458 L 279.319 109.667 278.743 109.667 L 278.167 109.667 278.167 110.917 L 278.167 112.167 277.601 112.167 C 276.917 112.167,276.833 112.340,276.833 113.748 C 276.833 114.720,276.807 114.795,276.500 114.715 C 276.306 114.664,276.167 114.710,276.167 114.824 C 276.167 114.931,276.097 114.977,276.012 114.924 C 275.863 114.832,275.628 115.316,275.681 115.608 C 275.695 115.686,275.697 116.331,275.686 117.042 L 275.667 118.333 275.101 118.333 C 274.423 118.333,274.333 118.510,274.333 119.847 L 274.333 120.833 273.750 120.833 L 273.167 120.833 273.167 122.083 C 273.167 123.398,273.135 123.441,272.227 123.319 C 272.168 123.311,272.057 123.405,271.980 123.527 C 271.886 123.675,271.834 123.553,271.824 123.167 C 271.808 122.520,271.634 121.969,271.452 121.988 C 270.703 122.066,270.683 122.035,270.632 120.792 L 270.583 119.583 269.958 119.532 L 269.333 119.480 269.333 117.919 C 269.333 116.244,269.112 115.721,268.475 115.888 C 268.191 115.963,267.996 114.752,268.159 113.923 C 268.206 113.681,267.653 113.333,267.218 113.333 C 266.857 113.333,266.833 113.268,266.831 112.292 C 266.828 111.317,266.687 110.786,266.440 110.819 C 265.720 110.915,265.682 110.860,265.632 109.625 L 265.583 108.417 264.958 108.365 L 264.333 108.313 264.333 106.811 C 264.333 105.212,264.176 104.833,263.512 104.833 C 263.216 104.833,262.958 103.308,263.195 102.958 C 263.282 102.829,262.784 102.160,262.616 102.181 C 262.109 102.245,262.000 102.138,262.000 101.576 L 262.000 100.986 259.595 101.009 C 257.657 101.027,257.172 101.079,257.097 101.275 M299.167 102.245 L 299.167 103.500 298.708 103.503 C 298.241 103.505,297.793 103.702,297.819 103.894 C 297.827 103.952,297.833 104.712,297.833 105.583 L 297.833 107.167 297.250 107.167 L 296.667 107.167 296.667 108.417 C 296.667 109.549,296.635 109.669,296.333 109.688 C 296.150 109.699,295.906 109.718,295.792 109.729 C 295.642 109.744,295.570 110.259,295.536 111.542 C 295.487 113.380,295.450 113.469,294.774 113.347 C 294.352 113.271,294.205 113.750,294.179 115.289 C 294.164 116.177,294.137 116.918,294.118 116.935 C 294.099 116.953,293.896 116.993,293.667 117.025 C 293.052 117.111,293.005 117.257,293.003 119.115 L 293.000 120.813 292.375 120.865 L 291.750 120.917 291.701 122.115 L 291.652 123.313 291.118 123.365 L 290.583 123.417 290.529 125.166 C 290.499 126.128,290.461 126.927,290.445 126.941 C 290.430 126.956,290.192 126.993,289.917 127.025 C 289.211 127.106,289.201 127.139,289.176 129.609 L 289.154 131.833 290.994 131.833 L 292.833 131.833 292.833 131.250 C 292.833 130.785,292.901 130.662,293.167 130.646 C 294.158 130.584,294.116 130.680,294.146 128.417 L 294.167 126.833 294.750 126.833 L 295.333 126.833 295.333 125.010 L 295.333 123.187 295.958 123.135 C 296.529 123.088,296.588 123.036,296.636 122.542 L 296.688 122.000 301.594 122.000 L 306.500 122.000 306.500 122.988 C 306.500 124.083,306.754 124.500,307.423 124.500 C 307.816 124.500,307.823 124.526,307.869 126.292 L 307.917 128.083 308.453 128.135 L 308.989 128.187 309.036 129.968 L 309.083 131.750 311.542 131.796 L 314.000 131.842 314.000 130.204 C 314.000 128.419,313.893 128.167,313.133 128.167 L 312.667 128.167 312.667 126.333 L 312.667 124.500 312.083 124.500 L 311.500 124.500 311.497 122.875 C 311.495 121.052,311.453 120.939,310.750 120.858 C 310.475 120.827,310.235 120.787,310.217 120.770 C 310.199 120.754,310.171 119.971,310.155 119.031 C 310.124 117.249,309.917 116.804,309.237 117.065 C 309.049 117.138,309.000 116.955,309.000 116.175 C 309.000 114.846,308.909 114.667,308.238 114.667 L 307.678 114.667 307.630 112.792 L 307.583 110.917 307.042 110.864 L 306.500 110.812 306.500 108.989 L 306.500 107.167 305.917 107.167 L 305.333 107.167 305.314 105.875 C 305.303 105.165,305.306 104.490,305.320 104.377 C 305.354 104.115,305.029 103.497,304.870 103.521 C 304.095 103.638,304.016 103.531,303.966 102.292 L 303.917 101.083 301.542 101.037 L 299.167 100.991 299.167 102.245 M316.577 101.208 C 316.533 101.323,316.517 108.242,316.540 116.583 L 316.583 131.750 318.958 131.796 L 321.333 131.842 321.361 125.630 C 321.377 122.212,321.419 119.698,321.455 120.042 C 321.516 120.628,321.555 120.667,322.083 120.667 C 322.614 120.667,322.650 120.703,322.698 121.292 C 322.745 121.856,322.800 121.922,323.269 121.967 C 323.768 122.016,323.792 122.054,323.883 122.937 C 323.989 123.959,324.182 124.288,324.720 124.365 C 324.994 124.404,325.104 124.560,325.167 125.000 C 325.240 125.516,325.313 125.589,325.792 125.636 C 326.221 125.677,326.334 125.764,326.336 126.052 C 326.339 126.440,326.551 126.871,326.727 126.848 C 327.448 126.751,327.667 126.854,327.669 127.292 C 327.672 127.759,327.869 128.207,328.060 128.181 C 328.598 128.109,328.833 128.202,328.833 128.486 C 328.833 129.124,329.023 129.333,329.601 129.333 C 330.150 129.333,330.167 129.353,330.167 130.000 C 330.167 130.651,330.181 130.667,330.750 130.667 C 331.306 130.667,331.333 130.694,331.333 131.250 L 331.333 131.833 333.750 131.833 L 336.167 131.833 336.167 130.667 L 336.167 129.500 335.605 129.500 L 335.043 129.500 334.930 128.348 C 334.813 127.170,334.695 127.000,333.986 127.000 C 333.695 127.000,333.548 126.538,333.651 125.946 C 333.664 125.870,333.603 125.853,333.516 125.907 C 333.428 125.961,333.309 125.929,333.252 125.836 C 333.194 125.743,333.001 125.667,332.823 125.667 C 332.565 125.667,332.500 125.550,332.500 125.083 C 332.500 124.528,332.472 124.500,331.917 124.500 C 331.453 124.500,331.333 124.435,331.333 124.180 C 331.333 123.543,331.143 123.333,330.566 123.333 C 330.034 123.333,330.000 123.300,330.000 122.768 C 330.000 122.190,329.790 122.000,329.153 122.000 C 328.899 122.000,328.833 121.881,328.833 121.417 C 328.833 120.847,328.817 120.833,328.167 120.833 L 327.500 120.833 327.500 120.167 C 327.500 119.516,327.486 119.500,326.917 119.500 C 326.357 119.500,326.333 119.474,326.314 118.875 C 326.276 117.690,326.112 117.252,325.696 117.231 C 325.196 117.205,325.038 117.028,324.971 116.417 C 324.938 116.109,324.832 115.934,324.696 115.962 C 324.575 115.988,324.523 115.930,324.582 115.835 C 324.641 115.739,324.760 115.704,324.845 115.757 C 324.931 115.810,325.000 115.555,325.000 115.187 C 325.000 114.537,325.016 114.519,325.625 114.468 C 326.214 114.420,326.253 114.381,326.301 113.801 C 326.338 113.361,326.418 113.210,326.580 113.272 C 326.828 113.367,327.508 113.063,327.479 112.870 C 327.391 112.290,327.530 112.000,327.896 112.000 C 328.465 112.000,328.652 111.685,328.774 110.525 L 328.881 109.500 329.440 109.500 C 329.969 109.500,330.000 109.468,330.000 108.917 C 330.000 108.347,330.016 108.333,330.667 108.333 C 331.317 108.333,331.333 108.319,331.333 107.750 C 331.333 107.286,331.399 107.167,331.653 107.167 C 332.287 107.167,332.500 106.976,332.500 106.409 C 332.500 105.905,332.549 105.850,333.042 105.802 C 333.518 105.756,333.590 105.685,333.636 105.208 C 333.686 104.688,333.849 104.577,334.450 104.652 C 334.733 104.688,335.000 104.173,335.000 103.594 C 335.000 103.446,335.206 103.335,335.542 103.302 L 336.083 103.250 336.083 102.167 L 336.083 101.083 333.167 101.083 L 330.250 101.083 330.167 101.667 C 330.097 102.157,330.024 102.242,329.708 102.198 C 329.502 102.169,329.333 102.230,329.333 102.333 C 329.333 102.436,329.240 102.466,329.125 102.400 C 329.010 102.334,328.972 102.341,329.040 102.416 C 329.108 102.491,329.087 102.645,328.993 102.759 C 328.899 102.872,328.833 103.029,328.847 103.107 C 328.913 103.474,328.809 103.630,328.542 103.566 C 327.883 103.408,327.715 103.759,327.680 105.375 C 327.667 105.991,327.657 106.000,327.000 106.000 C 326.349 106.000,326.333 106.014,326.333 106.583 C 326.333 107.139,326.306 107.167,325.750 107.167 C 325.196 107.167,325.167 107.196,325.167 107.740 C 325.167 108.282,325.133 108.316,324.542 108.365 C 323.951 108.414,323.914 108.451,323.865 109.042 C 323.818 109.605,323.766 109.667,323.341 109.667 C 322.861 109.667,322.667 109.911,322.667 110.514 C 322.667 110.733,322.549 110.834,322.292 110.836 C 321.724 110.840,321.534 111.029,321.457 111.668 C 321.418 111.988,321.375 109.719,321.360 106.625 L 321.333 101.000 318.995 101.000 C 317.277 101.000,316.635 101.055,316.577 101.208 M338.910 101.208 C 338.866 101.323,338.850 108.242,338.874 116.583 L 338.917 131.750 347.458 131.793 L 356.000 131.836 356.000 130.668 L 356.000 129.500 349.833 129.500 L 343.667 129.500 343.667 123.250 L 343.667 117.000 349.000 117.000 C 351.933 117.000,354.381 117.006,354.440 117.014 C 354.651 117.043,354.782 116.633,354.806 115.866 C 354.829 115.126,354.676 114.621,354.440 114.652 C 354.381 114.660,351.933 114.667,349.000 114.667 L 343.667 114.667 343.667 109.000 L 343.667 103.333 349.250 103.333 L 354.833 103.333 354.833 102.167 L 354.833 101.000 346.911 101.000 C 340.727 101.000,338.972 101.046,338.910 101.208 M126.162 102.336 C 125.916 102.488,125.893 102.551,125.854 103.167 C 125.837 103.441,125.715 103.500,125.167 103.500 C 124.516 103.500,124.500 103.514,124.500 104.083 C 124.500 104.640,124.473 104.667,123.911 104.667 L 123.322 104.667 123.369 106.458 L 123.417 108.250 124.500 108.250 L 125.583 108.250 125.636 107.708 C 125.687 107.176,125.703 107.166,126.552 107.147 C 127.028 107.137,127.492 107.111,127.583 107.089 C 127.675 107.068,127.844 107.039,127.958 107.025 C 128.073 107.011,128.158 106.944,128.147 106.875 C 128.001 105.953,128.119 105.850,129.375 105.799 C 130.190 105.766,130.590 105.682,130.604 105.542 C 130.616 105.427,130.634 105.183,130.646 105.000 C 130.665 104.698,130.785 104.667,131.917 104.667 L 133.167 104.667 133.167 105.250 C 133.167 105.819,133.183 105.833,133.833 105.833 C 134.488 105.833,134.626 106.008,134.521 106.703 C 134.492 106.900,135.174 107.199,135.430 107.101 C 135.610 107.032,135.671 107.179,135.684 107.714 C 135.694 108.100,135.719 108.529,135.739 108.667 C 135.760 108.804,135.789 109.048,135.805 109.208 C 135.826 109.426,135.984 109.500,136.426 109.500 L 137.019 109.500 136.968 110.208 C 136.925 110.805,136.864 110.910,136.583 110.876 C 135.824 110.782,135.698 111.130,135.678 113.375 L 135.667 114.667 135.083 114.667 C 134.528 114.667,134.500 114.694,134.500 115.250 C 134.500 115.819,134.484 115.833,133.833 115.833 C 133.183 115.833,133.167 115.847,133.167 116.417 C 133.167 116.972,133.139 117.000,132.583 117.000 C 132.015 117.000,132.000 117.017,132.000 117.659 L 132.000 118.319 130.792 118.368 L 129.583 118.417 129.531 118.958 C 129.483 119.454,129.430 119.500,128.906 119.500 C 128.349 119.500,128.333 119.518,128.333 120.167 C 128.333 120.824,128.324 120.834,127.708 120.847 C 126.096 120.882,125.741 121.049,125.897 121.703 C 125.961 121.966,125.460 122.288,125.125 122.200 C 125.056 122.182,125.000 122.246,125.000 122.343 C 125.000 122.440,124.930 122.476,124.843 122.423 C 124.757 122.370,124.681 122.459,124.674 122.621 C 124.608 124.195,124.484 124.500,123.910 124.500 C 123.387 124.500,123.350 124.538,123.302 125.125 C 123.261 125.620,123.175 125.761,122.887 125.802 C 122.193 125.901,122.086 126.258,122.026 128.700 C 121.994 129.973,122.014 131.199,122.070 131.424 L 122.173 131.833 131.337 131.833 L 140.500 131.833 140.500 130.667 L 140.500 129.500 133.750 129.500 L 127.000 129.500 127.000 128.177 L 127.000 126.854 127.542 126.802 C 127.840 126.774,128.093 126.656,128.104 126.542 C 128.116 126.427,128.134 126.199,128.146 126.034 C 128.159 125.850,128.374 125.675,128.708 125.576 C 129.104 125.460,129.255 125.314,129.269 125.036 C 129.294 124.547,129.392 124.458,129.915 124.458 C 130.371 124.458,130.667 124.086,130.667 123.511 C 130.667 123.229,130.772 123.167,131.250 123.167 C 131.804 123.167,131.833 123.137,131.833 122.593 C 131.833 122.051,131.867 122.017,132.458 121.968 C 133.049 121.919,133.086 121.883,133.135 121.292 L 133.187 120.667 134.177 120.667 C 134.721 120.667,135.215 120.673,135.273 120.681 C 135.449 120.705,135.661 120.273,135.664 119.886 C 135.666 119.597,135.779 119.510,136.208 119.469 C 136.703 119.421,136.755 119.362,136.802 118.792 C 136.851 118.201,136.885 118.167,137.427 118.167 C 137.969 118.167,138.000 118.136,138.000 117.593 C 138.000 117.051,138.034 117.017,138.625 116.968 L 139.250 116.917 139.299 115.708 L 139.348 114.500 139.924 114.500 L 140.500 114.500 140.500 110.514 C 140.500 106.052,140.492 106.000,139.816 106.000 C 139.417 106.000,139.333 105.930,139.333 105.597 C 139.333 104.873,139.163 104.667,138.566 104.667 C 138.030 104.667,138.000 104.635,138.000 104.083 C 138.000 103.528,137.972 103.500,137.417 103.500 C 136.865 103.500,136.833 103.470,136.833 102.934 C 136.833 102.564,136.739 102.333,136.560 102.264 C 136.130 102.099,126.437 102.166,126.162 102.336 M148.577 102.343 C 148.522 102.432,148.388 102.455,148.280 102.393 C 148.172 102.331,148.139 102.341,148.207 102.416 C 148.275 102.491,148.253 102.645,148.159 102.759 C 148.065 102.872,148.010 103.067,148.036 103.191 C 148.068 103.343,147.878 103.434,147.458 103.468 C 146.867 103.517,146.833 103.551,146.833 104.093 C 146.833 104.549,146.765 104.671,146.500 104.688 C 146.317 104.699,146.073 104.718,145.958 104.729 C 145.818 104.743,145.734 105.141,145.701 105.949 L 145.652 107.147 145.035 107.199 L 144.417 107.250 144.369 109.042 C 144.326 110.669,144.293 110.833,144.008 110.833 C 143.137 110.833,143.175 110.530,143.175 117.596 C 143.175 124.702,143.186 124.784,144.096 124.435 C 144.286 124.362,144.336 124.568,144.347 125.464 C 144.369 127.295,144.535 128.075,144.875 127.953 C 145.304 127.799,145.667 128.167,145.667 128.756 C 145.667 129.305,145.696 129.333,146.250 129.333 C 146.819 129.333,146.833 129.349,146.833 130.000 C 146.833 130.648,146.849 130.667,147.406 130.667 C 147.930 130.667,147.983 130.712,148.031 131.208 L 148.083 131.750 152.583 131.797 C 157.794 131.851,157.833 131.846,157.833 131.163 C 157.833 130.750,157.903 130.663,158.250 130.646 C 158.479 130.634,158.760 130.616,158.875 130.604 C 159.085 130.583,159.108 130.511,159.146 129.750 C 159.164 129.389,159.244 129.333,159.750 129.333 L 160.333 129.333 160.333 128.093 L 160.333 126.853 160.958 126.802 L 161.583 126.750 161.631 124.958 L 161.678 123.167 162.258 123.167 L 162.837 123.167 162.794 116.458 L 162.750 109.750 162.208 109.698 L 161.667 109.646 161.664 108.031 C 161.662 106.547,161.547 105.949,161.273 105.986 C 160.468 106.093,160.333 106.000,160.333 105.333 C 160.333 104.683,160.319 104.667,159.750 104.667 C 159.194 104.667,159.167 104.639,159.167 104.083 C 159.167 103.515,159.149 103.500,158.510 103.500 C 157.872 103.500,157.852 103.483,157.802 102.875 L 157.750 102.250 153.214 102.216 C 150.415 102.194,148.639 102.243,148.577 102.343 M171.778 102.278 C 171.717 102.339,171.667 102.639,171.667 102.944 C 171.667 103.473,171.636 103.501,171.042 103.514 C 169.431 103.548,169.075 103.716,169.230 104.366 C 169.284 104.592,169.159 104.659,168.607 104.700 C 167.942 104.748,167.915 104.772,167.865 105.368 L 167.814 105.986 166.615 106.035 L 165.417 106.083 165.364 106.625 C 165.317 107.121,165.264 107.167,164.739 107.167 L 164.167 107.167 164.167 108.333 L 164.167 109.500 166.482 109.500 C 168.943 109.500,169.000 109.481,169.000 108.653 C 169.000 108.391,169.121 108.333,169.664 108.333 L 170.329 108.333 170.389 119.625 C 170.422 125.835,170.471 131.029,170.497 131.167 C 170.614 131.772,170.845 131.833,173.020 131.833 L 175.167 131.833 175.167 117.000 L 175.167 102.167 173.528 102.167 C 172.626 102.167,171.839 102.217,171.778 102.278 M183.244 102.343 C 183.189 102.432,183.055 102.455,182.947 102.393 C 182.839 102.331,182.806 102.341,182.874 102.416 C 182.942 102.491,182.920 102.645,182.826 102.759 C 182.732 102.872,182.676 103.067,182.702 103.191 C 182.734 103.343,182.545 103.434,182.125 103.468 C 181.534 103.517,181.500 103.551,181.500 104.093 C 181.500 104.638,181.471 104.667,180.911 104.667 L 180.322 104.667 180.369 106.458 L 180.417 108.250 181.500 108.250 L 182.583 108.250 182.636 107.708 C 182.686 107.183,183.512 106.949,184.577 107.159 C 184.819 107.206,185.167 106.653,185.167 106.218 C 185.167 105.857,185.232 105.833,186.208 105.831 C 187.183 105.828,187.714 105.687,187.681 105.440 C 187.581 104.695,187.626 104.667,188.917 104.667 L 190.167 104.667 190.167 105.240 C 190.167 105.782,190.201 105.816,190.792 105.865 C 191.212 105.900,191.401 105.991,191.369 106.143 C 191.343 106.267,191.399 106.461,191.493 106.575 C 191.587 106.688,191.608 106.842,191.540 106.917 C 191.472 106.992,191.505 107.003,191.613 106.941 C 191.722 106.879,191.861 106.909,191.922 107.009 C 191.983 107.108,192.141 107.148,192.273 107.098 C 192.576 106.981,192.640 107.178,192.701 108.417 C 192.750 109.411,192.753 109.417,193.292 109.469 C 193.813 109.519,193.833 109.549,193.833 110.255 C 193.833 110.822,193.779 110.969,193.596 110.899 C 193.341 110.801,192.658 111.100,192.688 111.297 C 192.698 111.363,192.697 112.148,192.686 113.042 L 192.667 114.667 192.000 114.667 C 191.349 114.667,191.333 114.681,191.333 115.250 C 191.333 115.806,191.306 115.833,190.750 115.833 C 190.194 115.833,190.167 115.861,190.167 116.417 C 190.167 116.972,190.139 117.000,189.583 117.000 C 189.015 117.000,189.000 117.017,189.000 117.659 L 189.000 118.319 187.792 118.368 L 186.583 118.417 186.532 118.949 C 186.485 119.431,186.422 119.486,185.865 119.532 C 185.285 119.580,185.247 119.619,185.198 120.208 L 185.147 120.833 184.312 120.833 C 183.274 120.833,182.833 121.057,182.833 121.583 C 182.833 121.974,182.317 122.428,182.109 122.220 C 181.815 121.927,181.500 122.600,181.500 123.520 L 181.500 124.500 180.917 124.500 C 180.362 124.500,180.333 124.529,180.333 125.077 C 180.333 125.678,179.969 126.033,179.518 125.873 C 179.386 125.825,179.333 125.865,179.395 125.964 C 179.454 126.060,179.408 126.170,179.293 126.208 C 179.064 126.284,178.878 130.657,179.070 131.424 L 179.173 131.833 188.337 131.833 L 197.500 131.833 197.500 130.667 L 197.500 129.500 190.667 129.500 L 183.833 129.500 183.833 128.167 L 183.833 126.833 184.305 126.833 C 184.791 126.833,185.243 126.295,185.136 125.845 C 185.103 125.707,185.257 125.615,185.551 125.598 C 186.044 125.570,186.327 125.278,186.331 124.792 C 186.332 124.631,186.427 124.494,186.542 124.487 C 187.379 124.436,187.660 124.199,187.664 123.542 C 187.666 123.225,187.757 123.167,188.250 123.167 C 188.804 123.167,188.833 123.137,188.833 122.593 C 188.833 122.051,188.867 122.017,189.458 121.968 C 190.049 121.919,190.086 121.883,190.135 121.292 L 190.187 120.667 191.080 120.667 C 192.272 120.667,192.500 120.559,192.500 119.992 C 192.500 119.567,192.562 119.515,193.125 119.468 C 193.714 119.420,193.753 119.381,193.801 118.802 C 193.847 118.244,193.902 118.182,194.384 118.135 C 194.848 118.090,194.923 118.015,194.968 117.551 C 195.015 117.069,195.078 117.014,195.635 116.968 L 196.250 116.917 196.299 115.708 L 196.348 114.500 196.924 114.500 L 197.500 114.500 197.500 110.514 C 197.500 106.052,197.492 106.000,196.816 106.000 C 196.399 106.000,196.333 105.937,196.333 105.533 C 196.333 104.941,196.059 104.667,195.467 104.667 C 195.044 104.667,195.000 104.611,195.000 104.083 C 195.000 103.530,194.971 103.500,194.427 103.500 C 193.885 103.500,193.851 103.466,193.802 102.875 L 193.750 102.250 188.547 102.215 C 185.300 102.193,183.307 102.241,183.244 102.343 M223.667 103.635 C 223.667 104.237,224.053 104.496,225.116 104.606 C 226.124 104.710,226.150 104.725,226.199 105.231 C 226.227 105.517,226.344 105.759,226.458 105.771 C 226.573 105.782,226.817 105.801,227.000 105.813 C 227.247 105.828,227.334 105.952,227.336 106.292 C 227.338 106.759,227.535 107.207,227.727 107.181 C 228.505 107.077,228.500 107.063,228.500 109.078 C 228.500 110.662,228.459 110.974,228.263 110.899 C 227.693 110.680,227.390 111.111,227.351 112.196 C 227.307 113.422,227.367 113.313,226.700 113.364 C 226.201 113.402,226.167 113.445,226.167 114.035 L 226.167 114.667 224.917 114.667 L 223.667 114.667 223.667 115.250 L 223.667 115.833 221.083 115.833 L 218.500 115.833 218.500 109.583 L 218.500 103.333 221.083 103.333 C 223.465 103.333,223.667 103.357,223.667 103.635 M154.333 105.250 C 154.333 105.806,154.361 105.833,154.917 105.833 C 155.487 105.833,155.642 106.101,155.520 106.875 C 155.499 107.008,155.535 107.020,156.130 107.082 C 156.624 107.133,156.601 107.091,156.770 108.250 C 156.907 109.187,156.951 109.260,157.458 109.409 L 158.000 109.569 158.000 117.034 L 158.000 124.500 157.542 124.520 C 157.290 124.531,157.027 124.531,156.958 124.520 C 156.890 124.509,156.822 124.594,156.808 124.708 C 156.794 124.823,156.765 124.992,156.744 125.083 C 156.723 125.175,156.696 125.644,156.686 126.125 L 156.667 127.000 156.083 127.000 C 155.528 127.000,155.500 127.028,155.500 127.583 C 155.500 128.139,155.472 128.167,154.917 128.167 C 154.347 128.167,154.333 128.183,154.333 128.833 L 154.333 129.500 153.000 129.500 L 151.667 129.500 151.667 128.833 C 151.667 128.183,151.653 128.167,151.083 128.167 C 150.517 128.167,150.427 128.044,150.514 127.394 C 150.540 127.203,150.093 127.005,149.632 127.003 C 149.189 127.000,149.180 126.980,149.132 125.805 C 149.084 124.618,149.080 124.610,148.586 124.544 C 148.313 124.508,148.072 124.461,148.052 124.441 C 148.010 124.399,147.974 117.645,147.990 112.708 L 148.000 109.500 148.482 109.500 C 149.060 109.500,149.167 109.278,149.167 108.080 L 149.167 107.187 149.792 107.135 C 150.383 107.086,150.419 107.049,150.468 106.458 L 150.520 105.833 151.385 105.831 C 152.290 105.828,152.735 105.657,152.772 105.297 C 152.785 105.180,152.804 104.990,152.814 104.875 C 152.826 104.742,153.105 104.667,153.583 104.667 C 154.329 104.667,154.333 104.670,154.333 105.250 M302.292 110.802 L 302.833 110.854 302.853 112.302 C 302.863 113.099,302.889 113.825,302.911 113.917 C 302.932 114.008,302.961 114.161,302.975 114.256 C 302.989 114.351,303.240 114.447,303.533 114.470 C 304.206 114.521,304.132 114.313,304.195 116.334 C 304.234 117.579,304.310 118.089,304.458 118.104 C 304.573 118.116,304.817 118.134,305.000 118.146 C 305.274 118.163,305.333 118.285,305.333 118.833 L 305.333 119.500 301.583 119.500 L 297.833 119.500 297.833 118.250 C 297.833 117.129,297.866 117.000,298.153 117.000 C 298.954 117.000,299.000 116.894,299.000 115.066 L 299.000 113.333 299.480 113.333 C 299.921 113.333,300.284 113.099,300.319 112.792 C 300.327 112.723,300.333 111.954,300.333 111.083 L 300.333 109.500 300.917 109.500 L 301.500 109.500 301.533 108.292 C 301.561 107.267,301.580 107.362,301.658 108.917 L 301.750 110.750 302.292 110.802 " stroke="none" fill="#8c8c8c" fill-rule="evenodd"></path><path id="path1" d="M87.333 98.500 L 87.333 99.667 239.000 99.667 L 390.667 99.667 390.667 98.500 L 390.667 97.333 239.000 97.333 L 87.333 97.333 87.333 98.500 " stroke="none" fill="#04fc04" fill-rule="evenodd"></path><path id="path2" d="" stroke="none" fill="#68c490" fill-rule="evenodd"></path><path id="path3" d="" stroke="none" fill="#68c490" fill-rule="evenodd"></path><path id="path4" d="" stroke="none" fill="#68c490" fill-rule="evenodd"></path></g></svg>